<?xml version="1.0" encoding="UTF-8"?>
<svg width="122px" height="50px" viewBox="0 0 122 50" version="1.1" xmlns="http://www.w3.org/2000/svg" xmlns:xlink="http://www.w3.org/1999/xlink">
    <!-- Generator: Sketch 52.5 (67469) - http://www.bohemiancoding.com/sketch -->
    <title>蓝桥 Logo/dark</title>
    <desc>Created with Sketch.</desc>
    <g id="Symbols" stroke="none" stroke-width="1" fill="none" fill-rule="evenodd">
        <g id="蓝桥Logo/Blue" transform="translate(1.000000, 8.000000)" fill="#2E7EEE" fill-rule="nonzero">
            <path d="M27.909843,26.7056473 C27.9946442,26.658236 28.0763366,26.6054454 28.1544178,26.5475953 L31.461602,26.5475953 C31.164327,26.943962 30.8546656,27.377488 30.5202312,27.7862411 L29.5169282,27.7862411 C29.4938815,27.773934 29.4708796,27.7615475 29.4479227,27.7490818 L18.7035508,27.7490817 C18.3730626,27.3522382 18.0629995,26.9388208 17.7745665,26.510436 L27.6094137,26.510436 L27.8819158,26.6838464 C27.8912137,26.6911283 27.9005228,26.6983953 27.909843,26.7056473 Z M20.6919786,29.8795524 L5.68538398,29.8795524 C5.25012948,29.4896662 4.83662442,29.0761611 4.44673823,28.6409066 L16.4739884,28.6409066 C17.6283328,29.0332566 18.8349664,29.2503671 20.0536746,29.2850024 C19.8431049,29.0744327 19.6325351,28.8638629 19.4343518,28.6409066 L31.4492155,28.6409066 C32.7137138,29.0701173 34.0403686,29.2877389 35.3757225,29.2850024 C36.7123773,29.3037216 38.043038,29.1028671 39.314616,28.6904525 L44.7151115,28.6904525 C44.3252253,29.125707 43.9117202,29.539212 43.4764657,29.9290982 L20.7473163,29.9290982 C20.728938,29.9126545 20.7104843,29.8961353 20.6919786,29.8795524 L20.7473163,29.8795524 C20.6178686,29.797796 20.488421,29.693555 20.3610346,29.5791968 L20.6919786,29.8795524 Z M21.8393996,30.8209232 L42.4360033,30.8209232 C41.8062615,31.2748688 41.1484691,31.6885747 40.4665566,32.0595689 L23.7696119,32.0595689 C23.7465666,32.0472338 23.7235499,32.0348473 23.7005621,32.0224095 L8.76961189,32.0224095 C8.08435837,31.6571476 7.42618729,31.2432036 6.80016515,30.7837638 L21.7877787,30.7837638 C21.8049637,30.796182 21.8221708,30.8085685 21.8394,30.8209232 Z M95.219176,33.8074908 C94.5342085,34.1127843 93.6927042,34.2891313 92.7250206,34.2891313 C90.4582989,34.2891313 88.1668043,32.8399157 88.1668043,31.0810388 C88.1668043,29.3221618 89.9132948,27.8853327 92.7250206,27.8853327 C94.9793559,27.8853327 97.2213047,29.3097753 97.2213047,31.0810388 C97.2213047,32.0048547 96.7495896,32.837697 95.9063275,33.4231631 L97.2213047,34.2767448 L95.9454996,34.2767448 L95.219176,33.8074908 Z M94.7359979,32.6634755 C95.033031,32.2014038 95.1612501,31.6460283 95.090834,31.0934252 C95.1805203,30.4143125 94.9714516,29.7296644 94.5176848,29.2165041 C94.0639181,28.7033438 93.4100045,28.4120538 92.7250206,28.4179504 C92.024748,28.3917005 91.3479057,28.6724443 90.8718008,29.1866377 C90.3956958,29.7008311 90.1677692,30.3972376 90.2477291,31.0934252 C90.1712298,31.7865447 90.401183,32.4785157 90.877322,32.9879845 C91.353461,33.4974532 92.0283166,33.7736277 92.7250206,33.7441271 C93.292708,33.7516691 93.8398986,33.5538972 94.2691188,33.1936898 L93.7407102,32.8523022 L94.3971924,32.4435491 L94.7359979,32.6634755 Z M85.8381503,15.6722857 L85.8381503,21.9026738 L87.5474814,21.9026738 L87.5474814,23.5376862 L56.3831544,23.5376862 L56.3831544,21.8655144 L58.0924855,21.8655144 L58.0924855,15.6722857 L85.8381503,15.6722857 Z M66.2056152,21.8655144 L66.2056152,17.3444574 L62.3534269,17.3444574 L62.3534269,21.8655144 L66.2056152,21.8655144 Z M74.3187448,21.8655144 L74.3187448,17.3444574 L70.4665566,17.3444574 L70.4665566,21.8655144 L74.3187448,21.8655144 Z M81.9983485,21.8655144 L81.9983485,17.3444574 L78.1585467,17.3444574 L78.1585467,21.8655144 L81.9983485,21.8655144 Z M86.1354253,8.56245908 L86.1354253,9.85065066 L72.2625929,11.5475953 L72.2625929,10.2717902 L72.2625929,7.13801647 L76.5483072,7.13801647 L76.5483072,9.62769442 L86.1354253,8.56245908 Z M72.2625929,13.541815 L72.2625929,11.9811213 L86.1354253,12.8357869 L86.1354253,14.3964805 L72.2625929,13.541815 Z M58.4888522,7.84404455 L62.76218,7.84404455 L62.76218,13.678066 L58.4888522,13.678066 L58.4888522,7.84404455 Z M64.8926507,6.87790086 L69.1659785,6.87790086 L69.1659785,14.5327316 L64.8926507,14.5327316 L64.8926507,6.87790086 Z M61.9075145,5.98607592 L61.9075145,3.85560524 L56.345995,3.85560524 L56.345995,2.14627411 L61.9075145,2.14627411 L61.9075145,0.0158034222 L66.1684558,0.0158034222 L66.1684558,2.14627411 L77.7002477,2.14627411 L77.7002477,0.0158034222 L81.9983485,0.0158034222 L81.9983485,2.14627411 L87.5474814,2.14627411 L87.5474814,3.85560524 L81.9983485,3.85560524 L81.9983485,5.98607592 L77.7002477,5.98607592 L77.7002477,3.85560524 L66.1684558,3.85560524 L66.1684558,5.98607592 L61.9075145,5.98607592 Z M90.1114781,6.41960194 L93.3195706,6.41960194 L93.3195706,23.4881403 L90.1114781,23.4881403 L90.1114781,6.41960194 Z M98.6581338,6.41960194 L101.791908,6.41960194 L101.791908,23.4881403 L98.6581338,23.4881403 L98.6581338,6.41960194 Z M113.596201,3.75651358 L113.596201,6.8655144 L120,6.8655144 L120,8.57484554 L113.757225,8.57484554 L120,12.6004442 L120,14.3097753 L117.981007,13.108289 L117.981007,23.5005268 L114.661437,23.5005268 L114.673823,11.2007745 L114.364162,10.9902047 L111.911643,9.36757881 L109.954583,10.6557704 L109.421965,11.0149777 L107.192403,23.5005268 L103.996697,23.5005268 L105.953757,12.9224921 L103.526012,14.6194368 L103.526012,12.9101057 L110.053675,8.57484554 L103.526012,8.57484554 L103.526012,6.8655144 L109.867878,6.8655144 L109.867878,3.75651358 L103.971924,3.75651358 L103.971924,2.14627411 L119.591247,2.14627411 L119.591247,3.75651358 L113.596201,3.75651358 Z M97.580512,0.0158034222 L97.580512,3.57071672 L101.791908,3.57071672 L101.791908,5.26766139 L97.580512,5.26766139 L97.580512,23.5005268 L94.3848059,23.5005268 L94.3848059,5.26766139 L90.1114781,5.26766139 L90.1114781,3.57071672 L94.3848059,3.57071672 L94.3848059,0.0158034222 L97.580512,0.0158034222 Z M58.9471511,27.8853327 L58.9471511,33.5707167 L63.6416185,33.5707167 L63.6416185,34.2767448 L56.804294,34.2767448 L56.804294,27.8853327 L58.9471511,27.8853327 Z M82.6176713,33.0504855 L82.6176713,27.8853327 L83.6829067,27.8853327 L83.6829067,34.2767448 L81.6143683,34.2767448 L76.6102395,28.8638629 L76.6102395,34.2767448 L75.5450041,34.2767448 L75.5450041,27.8853327 L77.6754748,27.8853327 L82.6176713,33.0504855 Z M70.4417836,27.8853327 L74.2568126,34.2767448 L72.1263419,34.2767448 L71.0487201,32.4559355 L67.1345995,32.4559355 L66.0817506,34.2767448 L65.0165153,34.2767448 L68.7324525,27.8853327 L70.4417836,27.8853327 Z M67.4690339,31.8366127 L70.6895128,31.8366127 L69.0297275,29.1363649 L67.4690339,31.8366127 Z M98.6581338,27.8853327 L100.763832,27.8853327 L100.763832,34.2891313 L98.6581338,34.2891313 L98.6581338,27.8853327 Z M107.229562,27.8853327 L110.982659,34.2767448 L108.852188,34.2767448 L107.786953,32.4559355 L103.860446,32.4559355 L102.807597,34.2767448 L101.81668,34.2767448 L105.532618,27.8853327 L107.229562,27.8853327 Z M104.269199,31.8366127 L107.477291,31.8366127 L105.817506,29.1363649 L104.269199,31.8366127 Z M115.491329,27.8853327 C117.981007,27.8853327 119.987614,29.3097753 119.987614,31.0810388 C119.987614,32.8523022 117.968621,34.2891313 115.491329,34.2891313 C113.014038,34.2891313 110.933113,32.8399157 110.933113,31.0810388 C110.933113,29.3221618 113.014038,27.8853327 115.491329,27.8853327 Z M115.491329,33.7441271 C116.17408,33.7573709 116.828578,33.4718418 117.283292,32.9623724 C117.738005,32.4529031 117.947599,31.7702862 117.857143,31.0934252 C117.946829,30.4143125 117.73776,29.7296644 117.283994,29.2165041 C116.830227,28.7033438 116.176313,28.4120538 115.491329,28.4179504 C114.798487,28.4157295 114.136375,28.7037541 113.665649,29.2121374 C113.194924,29.7205208 112.958607,30.4027999 113.014038,31.0934252 C112.941834,31.7855891 113.173251,32.4750616 113.648428,32.9835012 C114.123605,33.4919408 114.795869,33.7694062 115.491329,33.7441271 Z M27.9066887,7.50961019 C28.6266381,6.94840154 29.407835,6.47054173 30.2353427,6.08516758 C32.8454301,9.1601972 34.2767228,13.0633238 34.2733339,17.0967283 L32.6011561,17.0967283 C32.5971157,13.3483993 30.8651163,9.81128184 27.9066887,7.50961019 Z M21.6639141,3.57071672 C22.0355078,3.2858282 22.3575557,3.02571259 22.7786953,2.76559698 C23.1998348,2.50548137 23.5962015,2.27013868 24.017341,2.04718245 L24.6366639,1.72513455 C29.9439913,-0.854436995 36.2049679,-0.522999275 41.2102859,2.60249346 C46.215604,5.72798619 49.2615596,11.2081169 49.2733278,17.1091147 L47.6011561,17.1091147 C47.6011561,10.3708759 42.1387343,4.90845412 35.4004955,4.90845412 C28.6622567,4.90845412 23.1998348,10.3708759 23.1998348,17.1091147 L14.9999856,17.1091147 C14.9940596,12.5389908 16.8290664,8.15908415 20.090834,4.95799995 C20.5851484,4.46257889 21.1105763,3.99920944 21.6639141,3.57071672 Z M17.1180842,34.227199 C14.860424,34.2288359 12.6248693,33.782567 10.5408753,32.9142345 L23.7076796,32.9142345 C21.6189759,33.7813433 19.3796237,34.22753 17.1180842,34.227199 Z M8.79438481,20.9489166 C9.0164587,21.6130567 9.29837571,22.2556617 9.63666391,22.8688175 L0.966143683,22.8688175 C0.737166044,22.2410943 0.546883515,21.5999249 0.396366639,20.9489166 L8.79438481,20.9489166 Z M10.1445087,23.7358695 C10.5964612,24.421628 11.1106058,25.0643087 11.6804294,25.6557704 L2.20478943,25.6557704 C1.84596475,25.0349824 1.52337726,24.3939431 1.23864575,23.7358695 L10.1445087,23.7358695 Z M12.6218002,26.510436 C13.2133721,26.981691 13.8478631,27.396391 14.5169282,27.7490817 L3.71593724,27.7490817 C3.38544903,27.3522382 3.07538601,26.9388208 2.78695293,26.510436 L12.6218002,26.510436 Z M31.9942197,25.6557704 L29.0834021,25.6557704 C29.6607837,25.0644608 30.1831682,24.421845 30.6440958,23.7358695 L32.9479769,23.7358695 C32.6624965,24.391445 32.344174,25.0322239 31.9942197,25.6557704 Z M33.8398018,20.9489166 C33.693431,21.5996772 33.5072846,22.2408479 33.2824112,22.8688175 L31.1519405,22.8688175 C31.481109,22.2528632 31.758689,21.6107006 31.9818332,20.9489166 L33.8398018,20.9489166 Z M41.2469034,27.7862411 C41.919404,27.4394172 42.554454,27.0243518 43.1420314,26.5475953 L46.4492155,26.5475953 C46.1519405,26.943962 45.8422791,27.377488 45.5202312,27.7862411 L41.2469034,27.7862411 Z M44.0834021,25.6557704 C44.6571053,25.064476 45.1753776,24.4218182 45.6317093,23.7358695 L47.9355904,23.7358695 C47.6601762,24.3960861 47.3415673,25.0374418 46.9818332,25.6557704 L44.0834021,25.6557704 Z M32.1056978,34.227199 C29.8481666,34.2275266 27.6128664,33.7813085 25.5284889,32.9142345 L38.6952931,32.9142345 C36.6068752,33.7822831 34.3673335,34.2285076 32.1056978,34.227199 Z M23.7819983,20.9489166 C24.0040722,21.6130567 24.2859893,22.2556617 24.6242775,22.8688175 L15.9537572,22.8688175 C15.7247796,22.2410943 15.5344971,21.5999249 15.3839802,20.9489166 L23.7819983,20.9489166 Z M26.6804294,25.6557704 L17.2419488,25.6557704 C16.8822147,25.0374418 16.5636058,24.3960861 16.2881916,23.7358695 L25.1321222,23.7358695 C25.5845011,24.4247085 26.1030642,25.0677267 26.6804294,25.6557704 Z M48.8398018,20.9489166 C48.6957417,21.5977031 48.5179613,22.2385395 48.3071841,22.8688175 L46.1395541,22.8688175 C46.4738325,22.2553406 46.7516081,21.6127254 46.9694467,20.9489166 L48.8398018,20.9489166 Z M23.5342692,1.24206271 C22.033616,2.05793208 20.6572033,3.08398513 19.4467382,4.28913125 C19.1990091,4.5368604 18.9512799,4.79697601 18.7159372,5.05709161 C12.700765,5.89019872 8.21647182,11.0241598 8.19983485,17.0967283 L0,17.0967283 C0.0112260677,11.4104671 2.84331551,6.10036801 7.55925028,2.92331721 C12.2751851,-0.253733578 18.2602604,-0.883619209 23.5342692,1.24206271 Z" id="合并形状"></path>
        </g>
    </g>
</svg>